<!DOCTYPE svg PUBLIC "-//W3C//DTD SVG 1.1//EN" "http://www.w3.org/Graphics/SVG/1.1/DTD/svg11.dtd">
<!-- Uploaded to: SVG Repo, www.svgrepo.com, Transformed by: SVG Repo Mixer Tools -->
<svg width="800px" height="800px" viewBox="-2.4 -2.4 28.80 28.80" fill="none" xmlns="http://www.w3.org/2000/svg">
<g id="SVGRepo_bgCarrier" stroke-width="0">
<path transform="translate(-2.4, -2.4), scale(0.8999999999999999)" d="M16,31.84919657697901C18.22903061299194,32.4978452911583,20.269284953773575,30.179758767899525,22.230165805660796,28.937072599647976C24.040694334934173,27.789670523490493,26.055196627510465,26.717102909766012,27.073967452202297,24.83119435248121C28.066178329407286,22.99445252733327,27.233615865472416,20.704027452784047,27.767847133374723,18.68593431581361C28.325095633223736,16.580892097771788,30.327318086714126,14.918904231962856,30.27422876708487,12.742000431960724C30.22052644776558,10.539960853915709,28.98558049306898,8.452700484772896,27.47909368280851,6.845728259472104C26.006435453754445,5.274841043379336,24.022592317315603,4.009277536563052,21.880697652074787,3.788605498694009C19.80814374614216,3.5750774006798274,18.081213518141716,5.564973554729386,16,5.663076732773334C14.052580226152898,5.754873209749234,12.174972932762648,3.5689651681154593,10.380362463794128,4.3307024150874565C8.614335746911733,5.080307052226452,8.372890790013734,7.525226416051453,7.5405061896505465,9.253778802830897C6.846617671071846,10.694726478250082,6.50864905183105,12.220810024284669,5.873969663584054,13.688799654236364C5.102263768011254,15.473726458307377,3.608067001595431,16.94983874243384,3.3782928103268812,18.880822301706125C3.123648908180264,21.02080671770769,2.880848980597624,23.751666286601324,4.508475154389448,25.164185262055387C6.246876894371316,26.672839696486236,9.311785662406894,24.599378064546357,11.301377036959874,25.756791117178928C13.546306575440335,27.062743074606107,13.506284104641407,31.123524349946816,16,31.84919657697901" fill="#75cbd7" strokewidth="0"/>
</g>
<g id="SVGRepo_tracerCarrier" stroke-linecap="round" stroke-linejoin="round"/>
<g id="SVGRepo_iconCarrier"> <g id="User / Users"> <path id="Vector" d="M21 19.9999C21 18.2583 19.3304 16.7767 17 16.2275M15 20C15 17.7909 12.3137 16 9 16C5.68629 16 3 17.7909 3 20M15 13C17.2091 13 19 11.2091 19 9C19 6.79086 17.2091 5 15 5M9 13C6.79086 13 5 11.2091 5 9C5 6.79086 6.79086 5 9 5C11.2091 5 13 6.79086 13 9C13 11.2091 11.2091 13 9 13Z" stroke="#b5b5b5" stroke-width="0.4800000000000001" stroke-linecap="round" stroke-linejoin="round"/> </g> </g>
</svg>