<!DOCTYPE svg PUBLIC "-//W3C//DTD SVG 1.1//EN" "http://www.w3.org/Graphics/SVG/1.1/DTD/svg11.dtd">
<!-- Uploaded to: SVG Repo, www.svgrepo.com, Transformed by: SVG Repo Mixer Tools -->
<svg width="800px" height="800px" viewBox="-2.4 -2.4 28.80 28.80" fill="none" xmlns="http://www.w3.org/2000/svg">
<g id="SVGRepo_bgCarrier" stroke-width="0">
<path transform="translate(-2.4, -2.4), scale(0.8999999999999999)" d="M16,29.90740470541641C17.995717386667422,30.426438651782163,20.05241196409373,29.157927736712168,21.849501628689186,28.146615291257824C23.59197070758459,27.166040587600527,24.92690610193719,25.674950483583437,26.224352464741024,24.153649009185187C27.552270499363075,22.596618428294818,29.500915285305272,21.142040984133626,29.567712397792455,19.096741817198463C29.636823237548597,16.980597305614204,26.855600967491135,15.685440951180755,26.569427535844575,13.587597136903913C26.242812286650747,11.193287587525438,28.74446394810849,8.79255932755515,27.855559227499327,6.545507005750059C27.030641358878267,4.46020633290272,24.565961130066086,2.983690774328451,22.32670402363721,2.862463725137049C19.96056349949449,2.7343675664197207,18.366773121671446,6.0195019444663345,16,5.903680545743555C13.443499027887896,5.778574545631021,11.855251489943274,1.6246171326274799,9.367901888576654,2.228306367462432C7.147235377148952,2.7672705992579267,7.631475695452898,6.406861275190475,6.2936543629923545,8.259447651191573C5.0335258325498895,10.004446696179404,2.363237887218598,10.683120860927902,1.7685264216683247,12.751759024789957C1.1777792343148197,14.806607884686917,2.6523332590472823,16.85612680226233,3.2304190245341466,18.914573528346683C3.783950669091733,20.88558798597484,3.5145343594340446,23.405189283390538,5.117896073803843,24.678188296194158C6.80477682010542,26.017497764241035,9.511258838421977,24.509761834607914,11.452651597083385,25.44266625632539C13.391627953592497,26.374409515654435,13.918032180782241,29.36593927517352,16,29.90740470541641" fill="#7ed0ec" strokewidth="0"/>
</g>
<g id="SVGRepo_tracerCarrier" stroke-linecap="round" stroke-linejoin="round"/>
<g id="SVGRepo_iconCarrier"> <path d="M4 18L9 12M20 18L15 12M3 8L10.225 12.8166C10.8665 13.2443 11.1872 13.4582 11.5339 13.5412C11.8403 13.6147 12.1597 13.6147 12.4661 13.5412C12.8128 13.4582 13.1335 13.2443 13.775 12.8166L21 8M6.2 19H17.8C18.9201 19 19.4802 19 19.908 18.782C20.2843 18.5903 20.5903 18.2843 20.782 17.908C21 17.4802 21 16.9201 21 15.8V8.2C21 7.0799 21 6.51984 20.782 6.09202C20.5903 5.71569 20.2843 5.40973 19.908 5.21799C19.4802 5 18.9201 5 17.8 5H6.2C5.0799 5 4.51984 5 4.09202 5.21799C3.71569 5.40973 3.40973 5.71569 3.21799 6.09202C3 6.51984 3 7.07989 3 8.2V15.8C3 16.9201 3 17.4802 3.21799 17.908C3.40973 18.2843 3.71569 18.5903 4.09202 18.782C4.51984 19 5.07989 19 6.2 19Z" stroke="#b5b5b5" stroke-width="0.4800000000000001" stroke-linecap="round" stroke-linejoin="round"/> </g>
</svg>