<!DOCTYPE svg PUBLIC "-//W3C//DTD SVG 1.1//EN" "http://www.w3.org/Graphics/SVG/1.1/DTD/svg11.dtd">
<!-- Uploaded to: SVG Repo, www.svgrepo.com, Transformed by: SVG Repo Mixer Tools -->
<svg width="800px" height="800px" viewBox="-2.4 -2.4 28.80 28.80" version="1.1" xmlns="http://www.w3.org/2000/svg" xmlns:xlink="http://www.w3.org/1999/xlink" fill="#000000">
<g id="SVGRepo_bgCarrier" stroke-width="0">
<path transform="translate(-2.4, -2.4), scale(0.8999999999999999)" d="M16,30.423438047990203C18.069818849052787,29.934495660815358,19.38818884433714,27.936430401631394,21.32220394722555,27.0516703733356C23.303028193341362,26.145496417700496,25.743275954874147,26.46262695311981,27.493268694418454,25.165575935073928C29.363553656064393,23.779367319048212,30.758867057350166,21.74769502525772,31.469432875792293,19.530797106416042C32.199458473217916,17.25318652393368,32.41866481949308,14.682381559817834,31.57010791414744,12.446224473045419C30.737937691338747,10.253250343188274,28.831919964441894,8.599560610386684,26.84707622889169,7.349745360279979C25.09784867056013,6.248292767739398,22.924402292140805,6.3153907218938645,20.936053508926168,5.7501792740888575C19.262458649309043,5.2744403184143485,17.68940193058277,4.682471903893916,16,4.26633679959923C13.904524956312121,3.750177376512052,11.870874537506312,2.680203317485132,9.735290447638047,2.9911965712092954C7.428625972604799,3.3271033115450415,4.807776954848506,4.1102619973776555,3.5583818088047217,6.078140577886531C2.2863046687405832,8.08174477357586,3.2957643360722004,10.731345483514364,3.3143566790315866,13.104584693547967C3.329490104179513,15.036306694461112,3.5715308154601786,16.887102947793164,3.658179640387157,18.816939959177123C3.761946702585204,21.12803324129759,2.8263700411184116,23.606279916509376,3.878388402784605,25.666662679147606C4.9346357394062395,27.735327908536718,7.149258223935066,29.04041454136696,9.311455310389462,29.888906159906547C11.419936681524977,30.716318601844954,13.795651128387837,30.944159752667627,16,30.423438047990203" fill="#7ed0ec" strokewidth="0"/>
</g>
<g id="SVGRepo_tracerCarrier" stroke-linecap="round" stroke-linejoin="round"/>
<g id="SVGRepo_iconCarrier"> <title/> <g fill="none" fill-rule="evenodd" id="页面-1" stroke-width="0.4800000000000001"> <g id="导航图标" transform="translate(-325.000000, -80.000000)"> <g id="编组" transform="translate(325.000000, 80.000000)"> <polygon fill="#FFFFFF" fill-opacity="0.01" fill-rule="nonzero" id="路径" points="24 0 0 0 0 24 24 24"/> <polygon id="路径" points="22 7 12 2 2 7 2 17 12 22 22 17" stroke="#b5b5b5" stroke-linejoin="round" stroke-width="0.4800000000000001"/> <line id="路径" stroke="#b5b5b5" stroke-linecap="round" stroke-linejoin="round" stroke-width="0.4800000000000001" x1="2" x2="12" y1="7" y2="12"/> <line id="路径" stroke="#b5b5b5" stroke-linecap="round" stroke-linejoin="round" stroke-width="0.4800000000000001" x1="12" x2="12" y1="22" y2="12"/> <line id="路径" stroke="#b5b5b5" stroke-linecap="round" stroke-linejoin="round" stroke-width="0.4800000000000001" x1="22" x2="12" y1="7" y2="12"/> <line id="路径" stroke="#b5b5b5" stroke-linecap="round" stroke-linejoin="round" stroke-width="0.4800000000000001" x1="17" x2="7" y1="4.5" y2="9.5"/> </g> </g> </g> </g>
</svg>