<!DOCTYPE svg PUBLIC "-//W3C//DTD SVG 1.1//EN" "http://www.w3.org/Graphics/SVG/1.1/DTD/svg11.dtd">
<!-- Uploaded to: SVG Repo, www.svgrepo.com, Transformed by: SVG Repo Mixer Tools -->
<svg width="800px" height="800px" viewBox="-2.4 -2.4 28.80 28.80" version="1.1" xmlns="http://www.w3.org/2000/svg" xmlns:xlink="http://www.w3.org/1999/xlink" fill="#000000">
<g id="SVGRepo_bgCarrier" stroke-width="0">
<path transform="translate(-2.4, -2.4), scale(0.8999999999999999)" d="M16,31.33766712124149C18.101777809791685,31.390255137589204,19.804187898656384,29.711365094072686,21.700234897304984,28.802937199239118C23.552711418805636,27.915384650249095,26.028601705093088,27.75216784706164,27.11811222655157,26.010793213744297C28.246875767540725,24.206680120223453,27.263231316516194,21.826297556527983,27.394210754958095,19.7022034973147C27.49711937846559,18.033333952336125,27.489582569227696,16.3991773034174,27.811969199041968,14.758512010352971C28.260844965114558,12.474127913167312,30.151074595131966,10.384401160395011,29.67283917645033,8.105982620889945C29.216110738159397,5.930028058197861,27.494981166120475,3.750841431795492,25.366558453735443,3.108038287242106C23.061373251818093,2.4118512526140194,20.77032216840041,5.134523359182954,18.401479185643176,4.7019287159373455C16.131784493452503,4.287440388601343,14.995327002521595,0.19560665252679377,12.77080239665932,0.8078197258677609C10.465130030869569,1.4423655346475779,11.44183596183881,5.66042127878395,9.5594540751583,7.135349031083589C7.777217303834775,8.531808747251759,4.661248782738362,6.96776276381822,2.9773826332933027,8.481388357778384C1.4264728295331972,9.875499625867405,1.3651015498305554,12.380914429935647,1.4043784278557254,14.465938356432554C1.442269632463984,16.47740342657844,2.1192026702137983,18.461304993328103,3.1973765179393876,20.159824532775403C4.192891536574156,21.728126077587827,6.117396594679377,22.399219286101907,7.33223599486289,23.80448976524469C8.57535104898839,25.242468223530334,8.990668686808448,27.27393193655076,10.425366538507836,28.520831755548326C12.014145843640968,29.901644186298846,13.895697146078785,31.285015926444874,16,31.33766712124149" fill="#7ed0ec" strokewidth="0"/>
</g>
<g id="SVGRepo_tracerCarrier" stroke-linecap="round" stroke-linejoin="round"/>
<g id="SVGRepo_iconCarrier"> <title/> <g fill="none" fill-rule="evenodd" id="页面-1" stroke-width="0.4800000000000001"> <g id="导航图标" transform="translate(-325.000000, -80.000000)"> <g id="编组" transform="translate(325.000000, 80.000000)"> <polygon fill="#FFFFFF" fill-opacity="0.01" fill-rule="nonzero" id="路径" points="24 0 0 0 0 24 24 24"/> <polygon id="路径" points="22 7 12 2 2 7 2 17 12 22 22 17" stroke="#b5b5b5" stroke-linejoin="round" stroke-width="0.4800000000000001"/> <line id="路径" stroke="#b5b5b5" stroke-linecap="round" stroke-linejoin="round" stroke-width="0.4800000000000001" x1="2" x2="12" y1="7" y2="12"/> <line id="路径" stroke="#b5b5b5" stroke-linecap="round" stroke-linejoin="round" stroke-width="0.4800000000000001" x1="12" x2="12" y1="22" y2="12"/> <line id="路径" stroke="#b5b5b5" stroke-linecap="round" stroke-linejoin="round" stroke-width="0.4800000000000001" x1="22" x2="12" y1="7" y2="12"/> <line id="路径" stroke="#b5b5b5" stroke-linecap="round" stroke-linejoin="round" stroke-width="0.4800000000000001" x1="17" x2="7" y1="4.5" y2="9.5"/> </g> </g> </g> </g>
</svg>