<!DOCTYPE svg PUBLIC "-//W3C//DTD SVG 1.1//EN" "http://www.w3.org/Graphics/SVG/1.1/DTD/svg11.dtd">
<!-- Uploaded to: SVG Repo, www.svgrepo.com, Transformed by: SVG Repo Mixer Tools -->
<svg width="800px" height="800px" viewBox="-2.4 -2.4 28.80 28.80" version="1.1" xmlns="http://www.w3.org/2000/svg" xmlns:xlink="http://www.w3.org/1999/xlink" fill="#000000">
<g id="SVGRepo_bgCarrier" stroke-width="0">
<path transform="translate(-2.4, -2.4), scale(1.7999999999999998)" fill="#7ed0ec" d="M9.166.33a2.25 2.25 0 00-2.332 0l-5.25 3.182A2.25 2.25 0 00.5 5.436v5.128a2.25 2.25 0 001.084 1.924l5.25 3.182a2.25 2.25 0 002.332 0l5.25-3.182a2.25 2.25 0 001.084-1.924V5.436a2.25 2.25 0 00-1.084-1.924L9.166.33z" strokewidth="0"/>
</g>
<g id="SVGRepo_tracerCarrier" stroke-linecap="round" stroke-linejoin="round"/>
<g id="SVGRepo_iconCarrier"> <title/> <g fill="none" fill-rule="evenodd" id="页面-1" stroke-width="0.4800000000000001"> <g id="导航图标" transform="translate(-325.000000, -80.000000)"> <g id="编组" transform="translate(325.000000, 80.000000)"> <polygon fill="#FFFFFF" fill-opacity="0.01" fill-rule="nonzero" id="路径" points="24 0 0 0 0 24 24 24"/> <polygon id="路径" points="22 7 12 2 2 7 2 17 12 22 22 17" stroke="#b5b5b5" stroke-linejoin="round" stroke-width="0.4800000000000001"/> <line id="路径" stroke="#b5b5b5" stroke-linecap="round" stroke-linejoin="round" stroke-width="0.4800000000000001" x1="2" x2="12" y1="7" y2="12"/> <line id="路径" stroke="#b5b5b5" stroke-linecap="round" stroke-linejoin="round" stroke-width="0.4800000000000001" x1="12" x2="12" y1="22" y2="12"/> <line id="路径" stroke="#b5b5b5" stroke-linecap="round" stroke-linejoin="round" stroke-width="0.4800000000000001" x1="22" x2="12" y1="7" y2="12"/> <line id="路径" stroke="#b5b5b5" stroke-linecap="round" stroke-linejoin="round" stroke-width="0.4800000000000001" x1="17" x2="7" y1="4.5" y2="9.5"/> </g> </g> </g> </g>
</svg>